<?xml version="1.0" encoding="UTF-8" standalone="no"?>
<svg
   xmlns:dc="http://purl.org/dc/elements/1.1/"
   xmlns:cc="http://creativecommons.org/ns#"
   xmlns:rdf="http://www.w3.org/1999/02/22-rdf-syntax-ns#"
   xmlns:svg="http://www.w3.org/2000/svg"
   xmlns="http://www.w3.org/2000/svg"
   viewBox="0 0 2666.6667 2666.6667"
   height="2666.6667"
   width="2666.6667"
   id="svg2"
   version="1.1"><metadata
     id="metadata8"><rdf:RDF><cc:Work
         rdf:about=""><dc:format>image/svg+xml</dc:format><dc:type
           rdf:resource="http://purl.org/dc/dcmitype/StillImage" /></cc:Work></rdf:RDF></metadata><defs
     id="defs6" /><g
     transform="matrix(1.3333333,0,0,-1.3333333,0,2666.6667)"
     id="g10"><g
       transform="scale(0.1)"
       id="g12"><g
         transform="scale(1.11547)"
         id="g14"><path
           id="path16"
           style="fill:#FFDD00;fill-opacity:1;fill-rule:evenodd;stroke:none"
           d="M 12946.2,9381.04 C 12038.6,8720.03 10971.1,8024.81 9802.36,7348.59 8612.36,6660.09 7457.9,6072.26 6418.48,5611.73 c 675.18,-473.07 1496.47,-750.26 2383.34,-750.26 2297.28,0 4159.78,1862.44 4159.78,4159.95 0,121.36 -5.1,240.99 -15.4,359.62 z m -1159.6,2899.86 c 131.1,-100.2 256.1,-203.3 373.5,-308.5 1156.1,408 1972,516.8 2155.3,227 C 14663.3,11647 12577.5,9855.69 9656.59,8198.28 6735.58,6540.94 4084.97,5644.9 3736.78,6197.59 c -162.17,256.66 202.76,782 933.61,1437.06 -45.76,138.6 -87.06,283.29 -124.28,434.26 C 2741.03,6696.57 1697.83,5514.82 1983.22,5020.86 c 442.72,-764.97 3907.5,411.4 7738.54,2628.14 3831.44,2216.59 6578.24,4633.6 6135.54,5398.7 -292.5,505.7 -1905.1,163.4 -4070.7,-766.8 z m -2984.78,900.4 c 1759.28,0 3263.68,-1092.1 3871.98,-2635.6 C 11863.1,9908.95 10792.6,9196.54 9577.7,8507.2 8007.83,7616.19 6516.09,6945.44 5417.61,6601.37 c -488.48,682.04 -775.89,1517.3 -775.89,2420.05 0,2297.48 1862.42,4159.88 4160.1,4159.88 v 0" /></g></g></g></svg>
